<?xml version="1.0" encoding="UTF-8" standalone="no"?>
<!DOCTYPE svg PUBLIC "-//W3C//DTD SVG 20010904//EN"
              "http://www.w3.org/TR/2001/REC-SVG-20010904/DTD/svg10.dtd">

<svg xmlns="http://www.w3.org/2000/svg"
     width="180.6mm" height="180.6mm"
     viewBox="0 0 512 512">
  <path id="Selection #1"
        fill="#71b053"
        d="M 235.00,56.21
           C 206.37,60.58 185.82,65.52 160.00,79.47
             111.29,105.79 75.00,152.27 61.63,206.00
             58.98,216.64 56.02,232.15 56.00,243.00
             56.00,243.00 56.00,269.00 56.00,269.00
             56.03,287.81 63.34,315.53 70.45,333.00
             93.02,388.45 141.43,432.00 199.00,448.42
             210.76,451.78 229.94,455.86 242.00,456.00
             242.00,456.00 268.00,456.00 268.00,456.00
             293.58,455.96 329.68,444.90 352.00,432.57
             372.28,421.36 391.42,406.44 406.71,389.00
             431.17,361.12 447.28,327.55 453.41,291.00
             454.41,285.06 455.93,275.85 456.00,270.00
             456.00,270.00 456.00,244.00 456.00,244.00
             455.97,224.58 448.88,197.02 441.55,179.00
             430.89,152.82 415.93,131.90 396.00,112.00
             379.65,95.68 360.11,82.47 339.00,73.14
             319.33,64.45 290.55,56.03 269.00,56.21
             269.00,56.21 235.00,56.21 235.00,56.21 Z
           M 360.00,168.00
           C 360.00,168.00 352.40,208.00 352.40,208.00
             352.40,208.00 337.60,282.00 337.60,282.00
             337.60,282.00 331.20,314.00 331.20,314.00
             331.20,314.00 327.84,327.52 327.84,327.52
             327.84,327.52 321.00,331.00 321.00,331.00
             321.00,331.00 305.00,336.33 305.00,336.33
             305.00,336.33 255.00,352.67 255.00,352.67
             255.00,352.67 231.00,359.70 231.00,359.70
             231.00,359.70 207.00,351.19 207.00,351.19
             207.00,351.19 148.00,329.00 148.00,329.00
             148.00,329.00 156.00,285.00 156.00,285.00
             156.00,285.00 192.00,285.00 192.00,285.00
             191.72,288.44 189.04,299.42 190.19,301.58
             191.29,303.65 194.91,304.63 197.00,305.42
             197.00,305.42 213.00,311.58 213.00,311.58
             213.00,311.58 238.72,320.91 238.72,320.91
             241.74,321.30 250.68,317.77 254.00,316.67
             254.00,316.67 282.00,307.33 282.00,307.33
             284.89,306.37 293.64,303.80 295.57,302.16
             298.21,299.92 298.73,294.32 299.40,291.00
             299.40,291.00 305.00,262.00 305.00,262.00
             305.00,262.00 161.00,262.00 161.00,262.00
             161.00,262.00 167.00,226.00 167.00,226.00
             167.00,226.00 313.00,226.00 313.00,226.00
             313.00,226.00 317.00,204.00 317.00,204.00
             317.00,204.00 172.00,204.00 172.00,204.00
             172.00,204.00 179.00,168.00 179.00,168.00
             179.00,168.00 360.00,168.00 360.00,168.00 Z" />
             <path id="Selection"
        fill="#ffffff"
        d="M 173.00,203.00
           C 173.00,203.00 317.00,203.00 317.00,203.00
             317.00,203.00 314.42,219.00 314.42,219.00
             314.42,219.00 311.57,225.98 311.57,225.98
             311.57,225.98 304.00,227.00 304.00,227.00
             304.00,227.00 176.00,227.00 176.00,227.00
             176.00,227.00 168.73,227.99 168.73,227.99
             168.73,227.99 165.80,237.00 165.80,237.00
             165.80,237.00 161.00,262.00 161.00,262.00
             161.00,262.00 306.00,262.00 306.00,262.00
             306.00,262.00 300.20,291.00 300.20,291.00
             299.43,294.85 298.95,300.64 295.72,303.16
             293.70,304.74 282.34,307.89 279.00,309.00
             279.00,309.00 241.00,321.39 241.00,321.39
             236.11,322.03 218.65,314.41 213.00,312.32
             213.00,312.32 196.00,305.81 196.00,305.81
             193.84,304.96 190.34,304.00 189.32,301.73
             188.51,299.91 190.85,289.35 191.00,286.00
             191.00,286.00 163.00,286.00 163.00,286.00
             155.70,286.14 156.33,287.33 154.20,298.00
             154.20,298.00 148.00,328.00 148.00,328.00
             148.00,328.00 205.00,349.60 205.00,349.60
             205.00,349.60 232.00,359.11 232.00,359.11
             232.00,359.11 260.00,350.33 260.00,350.33
             260.00,350.33 328.00,328.00 328.00,328.00
             328.00,328.00 333.60,299.00 333.60,299.00
             333.60,299.00 343.60,249.00 343.60,249.00
             343.60,249.00 354.00,197.00 354.00,197.00
             354.00,197.00 360.00,168.00 360.00,168.00
             360.00,168.00 188.00,168.00 188.00,168.00
             188.00,168.00 180.73,168.99 180.73,168.99
             180.73,168.99 177.80,178.00 177.80,178.00
             177.80,178.00 173.00,203.00 173.00,203.00 Z" />
</svg>
